<?xml version="1.0" encoding="utf-8"?>
<!-- Generator: Adobe Illustrator 26.5.0, SVG Export Plug-In . SVG Version: 6.00 Build 0)  -->
<svg version="1.1" xmlns="http://www.w3.org/2000/svg" xmlns:xlink="http://www.w3.org/1999/xlink" x="0px" y="0px"
	 viewBox="0 0 612 792" style="enable-background:new 0 0 612 792;" xml:space="preserve">
<style type="text/css">
	.st0{fill:url(#SVGID_1_);stroke:url(#SVGID_00000023987585605427206110000005329080102968168582_);stroke-miterlimit:10;}
	.st1{fill:#96734E;}
	.st2{stroke:#96734E;stroke-miterlimit:10;}
	.st3{stroke:#000000;stroke-width:0.5;stroke-miterlimit:10;}
	.st4{fill:#96734E;stroke:#000000;stroke-width:0.5;stroke-miterlimit:10;}
</style>
<g id="card">
	<g id="D2DdVL.tif">
		<g id="oMaofR.tif">
			<linearGradient id="SVGID_1_" gradientUnits="userSpaceOnUse" x1="287.5131" y1="79.77" x2="287.5131" y2="384.9424">
				<stop  offset="1.550099e-03" style="stop-color:#131618"/>
				<stop  offset="0.4096" style="stop-color:#181A1F"/>
				<stop  offset="1" style="stop-color:#2A3689"/>
			</linearGradient>
			
				<linearGradient id="SVGID_00000104671711285049092670000012975832834245863853_" gradientUnits="userSpaceOnUse" x1="185.22" y1="232.3562" x2="389.8062" y2="232.3562">
				<stop  offset="0" style="stop-color:#FFFFFF"/>
				<stop  offset="0" style="stop-color:#141413"/>
				<stop  offset="1" style="stop-color:#2A3685"/>
			</linearGradient>
			
				<path style="fill:url(#SVGID_1_);stroke:url(#SVGID_00000104671711285049092670000012975832834245863853_);stroke-miterlimit:10;" d="
				M373.48,384.94H201.54c-8.7,0-15.82-7.12-15.82-15.82V95.59c0-8.7,7.12-15.82,15.82-15.82h171.94c8.7,0,15.82,7.12,15.82,15.82
				v273.53C389.31,377.82,382.19,384.94,373.48,384.94z"/>
		</g>
	</g>
</g>
<g id="chip">
	<path class="st1" d="M298.79,142.36H275.4c-3.12,0-5.67-2.55-5.67-5.67v-34.04c0-3.12,2.55-5.67,5.67-5.67h23.39
		c3.12,0,5.67,2.55,5.67,5.67v34.04C304.46,139.81,301.91,142.36,298.79,142.36z"/>
	<line class="st1" x1="278.97" y1="96.98" x2="279.36" y2="110.57"/>
	<line class="st2" x1="278.97" y1="96.98" x2="279.17" y2="116.45"/>
	<line class="st3" x1="279.56" y1="96.98" x2="279.56" y2="142.36"/>
	<line class="st3" x1="294.21" y1="96.98" x2="294.21" y2="142.36"/>
	<path class="st4" d="M291.79,123.51h-10.33c-3.74,0-6.8-3.06-6.8-6.8v0c0-3.74,3.06-6.8,6.8-6.8h10.33c3.74,0,6.8,3.06,6.8,6.8v0
		C298.59,120.45,295.53,123.51,291.79,123.51z"/>
</g>
</svg>
