<?xml version="1.0" encoding="UTF-8"?><svg id="Layer_1" xmlns="http://www.w3.org/2000/svg" viewBox="0 0 1519.11 540.52">
    <defs>
        <style>
            .cls-1 {
                fill: #fff;
            }

            .cls-2 {
                fill: #0851dd;
            }

            .cls-3 {
                fill: #0dcbc1;
            }
        </style>
    </defs>
    <path id="outer_c" class="cls-2"
        d="M276.76,398.66c-72.44,0-131.12-58.68-131.12-131.03s58.68-131.03,131.12-131.03c20.38,0,39.66,4.67,56.9,12.99l54.26-106.91c-33.46-16.64-71.25-25.99-111.16-25.99-138.67,0-251.02,112.35-251.02,250.94s112.35,250.94,251.02,250.94c39.4,0,76.68-9.09,109.8-25.31l-54.69-106.74c-16.73,7.81-35.41,12.14-55.11,12.14Z" />
    <circle id="center_dot" class="cls-3" cx="276.76" cy="267.63" r="94.77"
        transform="translate(-108.18 274.08) rotate(-45)" />
    <g>
        <g>
            <path class="cls-1"
                d="M525.03,264.59c0-44.84,33.95-75.09,77.49-75.09,36.13,0,54.85,19.81,64.42,38.96l-32.21,15.24c-4.79-11.54-17.19-21.12-32.21-21.12-22.64,0-39.4,18.28-39.4,42.01s16.76,42.01,39.4,42.01c15.02,0,27.42-9.58,32.21-21.11l32.21,15.24c-9.36,18.72-28.29,38.96-64.42,38.96-43.53,0-77.49-30.47-77.49-75.09Z" />
            <path class="cls-1"
                d="M686.57,231.93h33.52v13.28c6.97-8.49,20.24-15.89,32.87-15.89v32.43c-1.96-.65-4.79-1.09-8.27-1.09-8.71,0-20.24,3.7-24.6,9.8v66.6h-33.52v-105.13Z" />
            <path class="cls-1"
                d="M783.45,350.12c7.62,0,12.41-1.52,14.15-5.88l2.39-5.66-41.79-106.65h35.26l23.73,66.61,23.94-66.61h35.48l-47.45,120.15c-8.49,22.2-24.38,27.21-44.4,27.64-3.05,0-10.88-.65-14.36-1.74l4.79-29.82c2.39,1.31,5.66,1.96,8.27,1.96Z" />
            <path class="cls-1"
                d="M891,377.12V231.93h33.52v12.19c8.27-10.01,19.16-14.8,31.13-14.8,26.34,0,46.14,19.59,46.14,55.07s-19.81,55.28-46.14,55.28c-11.75,0-22.42-4.57-31.13-15.02v52.46h-33.52Zm53.54-118.19c-7.19,0-15.89,3.92-20.03,9.58v32c4.14,5.44,12.84,9.58,20.03,9.58,13.06,0,23.07-9.8,23.07-25.68s-10.01-25.47-23.07-25.47Z" />
            <path class="cls-1"
                d="M1030.77,308.77v-47.67h-17.42v-29.17h17.42v-28.73h33.3v28.73h21.33v29.17h-21.33v38.31c0,6.09,3.48,10.66,9.36,10.66,3.7,0,7.4-1.31,8.49-2.61l6.53,25.25c-4.13,3.92-12.41,6.97-24.81,6.97-21.33,0-32.87-10.66-32.87-30.9Z" />
            <path class="cls-1"
                d="M1099.57,284.39c0-29.6,21.55-55.07,57.24-55.07s57.46,25.47,57.46,55.07-21.33,55.28-57.46,55.28-57.24-25.68-57.24-55.28Zm80.32,0c0-13.93-8.27-25.47-23.07-25.47s-22.64,11.54-22.64,25.47,8.05,25.68,22.64,25.68,23.07-11.54,23.07-25.68Z" />
            <path class="cls-1" d="M1236.29,191.89h33.52v145.18h-33.52V191.89Z" />
            <path class="cls-1" d="M1298.55,191.89h33.52v145.18h-33.52V191.89Z" />
            <path class="cls-1"
                d="M1371.7,350.12c7.62,0,12.41-1.52,14.15-5.88l2.39-5.66-41.79-106.65h35.26l23.72,66.61,23.94-66.61h35.48l-47.45,120.15c-8.49,22.2-24.38,27.21-44.4,27.64-3.05,0-10.88-.65-14.36-1.74l4.79-29.82c2.39,1.31,5.66,1.96,8.27,1.96Z" />
        </g>
        <rect class="cls-2" x="1464.88" y="300.82" width="36.25" height="36.25" />
    </g>
</svg>