<?xml version="1.0" encoding="UTF-8"?><svg id="Layer_1" xmlns="http://www.w3.org/2000/svg" viewBox="0 0 1519.11 325.28">
    <defs>
        <style>
            .cls-1 {
                fill: #fff;
            }

            .cls-2 {
                fill: #0851dd;
            }
        </style>
    </defs>
    <g>
        <path class="cls-1"
            d="M36.11,132.14c0-66.47,50.33-111.31,114.86-111.31,53.56,0,81.3,29.36,95.5,57.75l-47.75,22.59c-7.1-17.1-25.48-31.3-47.75-31.3-33.56,0-58.4,27.1-58.4,62.27s24.84,62.27,58.4,62.27c22.26,0,40.65-14.2,47.75-31.29l47.75,22.58c-13.87,27.75-41.94,57.75-95.5,57.75-64.53,0-114.86-45.17-114.86-111.31Z" />
        <path class="cls-1"
            d="M275.55,83.74h49.69v19.68c10.32-12.58,30.01-23.55,48.72-23.55v48.07c-2.91-.96-7.1-1.61-12.26-1.61-12.91,0-30.01,5.48-36.46,14.52v98.73h-49.69V83.74Z" />
        <path class="cls-1"
            d="M419.17,258.93c11.29,0,18.39-2.26,20.97-8.71l3.55-8.39-61.95-158.09h52.27l35.17,98.73,35.49-98.73h52.59l-70.34,178.1c-12.58,32.91-36.14,40.33-65.82,40.98-4.52,0-16.13-.97-21.29-2.58l7.1-44.2c3.55,1.94,8.39,2.9,12.26,2.9Z" />
        <path class="cls-1"
            d="M578.6,298.95V83.74h49.68v18.07c12.27-14.84,28.4-21.94,46.14-21.94,39.04,0,68.4,29.04,68.4,81.63s-29.36,81.95-68.4,81.95c-17.42,0-33.23-6.78-46.14-22.26v77.76h-49.68Zm79.37-175.2c-10.65,0-23.55,5.81-29.69,14.19v47.43c6.13,8.06,19.04,14.19,29.69,14.19,19.36,0,34.2-14.52,34.2-38.07s-14.84-37.75-34.2-37.75Z" />
        <path class="cls-1"
            d="M785.78,197.64V126.98h-25.82v-43.24h25.82V41.16h49.36v42.58h31.62v43.24h-31.62v56.78c0,9.03,5.16,15.81,13.87,15.81,5.48,0,10.97-1.94,12.59-3.87l9.68,37.42c-6.13,5.81-18.39,10.32-36.78,10.32-31.62,0-48.72-15.81-48.72-45.81Z" />
        <path class="cls-1"
            d="M887.76,161.5c0-43.88,31.94-81.63,84.85-81.63s85.17,37.75,85.17,81.63-31.62,81.95-85.17,81.95-84.85-38.07-84.85-81.95Zm119.05,0c0-20.65-12.26-37.75-34.2-37.75s-33.56,17.1-33.56,37.75,11.94,38.07,33.56,38.07,34.2-17.1,34.2-38.07Z" />
        <path class="cls-1" d="M1090.42,24.38h49.69V239.58h-49.69V24.38Z" />
        <path class="cls-1" d="M1182.71,24.38h49.69V239.58h-49.69V24.38Z" />
        <path class="cls-1"
            d="M1291.14,258.93c11.29,0,18.39-2.26,20.97-8.71l3.55-8.39-61.95-158.09h52.27l35.17,98.73,35.49-98.73h52.59l-70.34,178.1c-12.58,32.91-36.14,40.33-65.82,40.98-4.52,0-16.13-.97-21.29-2.58l7.1-44.2c3.55,1.94,8.39,2.9,12.26,2.9Z" />
    </g>
    <rect class="cls-2" x="1429.27" y="185.85" width="53.73" height="53.73" />
</svg>